:SAMPLES-PER-SECOND 30
:FRAME-RANGE 1-1390
:FULLY-SPECIFIED
:DEGREES
44
root  -54.3486 38.6195 -90.1385 -3.80872 58.8298 -3.19062
RightUpLeg  -9.2823 -1.98337 7.91242
RightLeg  19.9898 -13.0556 -2.88309
RightFoot  -12.5162 -0.122087 -3.65784
RightToes  -2.9104e-010 0 -3.6325e-017
Spine  8.75998 -0.705746 9.26935
Spine1  -3.09102 0.752474 -0.0222098
HEad  4.11152 11.9614 -1.37201
LeftShoulder1  1.36182 0.113702 -34.1005
LeftArm  20.6986 0.820552 -35.0416
LeftForeArm  1.71261 -11.6203 -14.4912
LeftHand  0.398144 -1.93691 -6.1589
RightShoulder  8.53494 10.8691 51.978
RightArm  34.7752 1.86535 17.6858
RightForeArm  1.20315 17.0095 9.94452
RightHand  0.297758 0.429163 5.84434
LeftUpLeg  -15.1969 2.39269 7.74645
LeftLeg  56.0189 2.23158 4.05279
LeftFoot  2.23378 1.11428 -9.46114
LeftToes  5.45371e-012 -1.3743e-010 1.09575e-010
45
root  -53.4912 38.7767 -89.5838 -2.22978 56.8245 -1.12102
RightUpLeg  -6.66833 -2.45753 6.98344
RightLeg  18.6164 -10.5725 -2.28722
RightFoot  -13.3412 -0.154573 -3.68988
RightToes  -2.9104e-010 0 -3.6325e-017
Spine  8.66393 -0.12505 8.85542
Spine1  -3.43528 1.28452 -1.02486
HEad  4.27946 12.7981 -1.66559
LeftShoulder1  1.32126 0.212009 -34.067
LeftArm  21.4636 1.95686 -34.3552
LeftForeArm  0.512522 -12.4797 -13.9855
LeftHand  0.397911 -1.89414 -6.19546
RightShoulder  8.94325 11.5097 52.1333
RightArm  35.7987 2.72238 18.198
RightForeArm  -0.561766 17.8554 9.25874
RightHand  0.299207 0.376014 5.81151
LeftUpLeg  -17.2963 0.590646 6.58311
LeftLeg  51.211 2.46884 3.73031
LeftFoot  0.815288 0.960532 -9.05445
LeftToes  5.45371e-012 -1.3743e-010 1.09575e-010
46
root  -52.6609 38.9345 -89.0183 -1.00435 54.8691 0.530806
RightUpLeg  -4.00477 -2.78462 6.04234
RightLeg  16.9887 -8.35817 -1.8001
RightFoot  -13.9921 -0.189533 -4.10424
RightToes  -2.9104e-010 0 -3.6325e-017
Spine  8.55411 0.401369 8.30367
Spine1  -3.61562 1.69952 -1.92158
HEad  4.06681 13.7093 -2.11997
LeftShoulder1  1.2987 0.280568 -34.2177
LeftArm  21.5959 2.88285 -33.5739
LeftForeArm  -0.125988 -12.7999 -13.7973
LeftHand  0.388077 -1.82505 -6.10316
RightShoulder  9.41429 12.2809 52.1918
RightArm  36.6815 3.53626 18.6441
RightForeArm  -1.12567 18.165 9.02504
RightHand  0.294992 0.374829 5.52412
LeftUpLeg  -18.6401 -0.659546 5.70234
LeftLeg  44.1203 2.35564 2.83098
LeftFoot  -0.0909176 0.909258 -9.2132
LeftToes  5.45371e-012 -1.3743e-010 1.09575e-010
47
root  -51.8585 39.0858 -88.4483 0.0558777 53.0556 1.94741
RightUpLeg  -1.25292 -2.96579 5.08758
RightLeg  14.893 -6.42817 -1.42303
RightFoot  -14.3341 -0.207428 -4.23135
RightToes  -2.9104e-010 0 -3.6325e-017
Spine  8.37697 0.847609 7.53845
Spine1  -3.57152 2.02043 -2.82557
HEad  3.80786 14.5985 -2.41041
LeftShoulder1  1.28511 0.321292 -34.3043
LeftArm  21.1161 3.61394 -32.9235
LeftForeArm  -0.248443 -12.5529 -13.9742
LeftHand  0.379017 -1.69617 -6.0784
RightShoulder  9.94841 13.1187 52.363
RightArm  36.9746 4.23488 18.9716
RightForeArm  -0.404392 17.8479 9.30854
RightHand  0.295392 0.563167 5.56424
LeftUpLeg  -19.2149 -0.998734 4.82793
LeftLeg  35.1005 1.79183 1.7005
LeftFoot  -0.139035 0.917102 -9.3295
LeftToes  5.45371e-012 -1.3743e-010 1.09575e-010
48
root  -51.0751 39.2174 -87.8649 0.807915 51.305 3.02923
RightUpLeg  1.63611 -2.99129 4.25939
RightLeg  12.4786 -4.85332 -1.21301
RightFoot  -14.4911 -0.20324 -3.8294
RightToes  -2.9104e-010 0 -3.6325e-017
Spine  8.28572 1.25805 6.59317
Spine1  -3.42884 2.32481 -3.56406
HEad  3.65524 15.4605 -2.48383
LeftShoulder1  1.27273 0.357451 -34.3732
LeftArm  20.0634 4.25209 -32.366
LeftForeArm  0.331573 -11.816 -14.4306
LeftHand  0.387497 -1.67478 -6.23844
RightShoulder  10.3291 13.7576 52.3506
RightArm  37.4018 4.59781 19.4398
RightForeArm  0.298787 17.3981 9.72489
RightHand  0.294328 0.437643 5.59831
LeftUpLeg  -18.9564 -0.0512245 3.88981
LeftLeg  24.8461 -0.196385 0.224911
LeftFoot  0.367502 0.996282 -9.72245
LeftToes  5.45371e-012 -1.3743e-010 1.09575e-010
49
root  -50.2799 39.2829 -87.2722 1.21184 49.939 3.62479
RightUpLeg  4.21594 -3.11784 3.5192
RightLeg  10.632 -3.30443 -0.968607
RightFoot  -14.945 -0.2267 -3.99469
RightToes  -2.9104e-010 0 -3.6325e-017
Spine  8.09874 1.47776 5.73867
Spine1  -3.20693 2.46851 -4.04497
HEad  3.5331 16.5398 -2.68108
LeftShoulder1  1.25252 0.407612 -34.3748
LeftArm  19.1497 4.96777 -31.8589
LeftForeArm  0.945427 -11.0514 -14.878
LeftHand  0.405663 -1.66832 -6.54384
RightShoulder  10.7257 14.3447 52.5619
RightArm  38.0114 4.60763 19.5018
RightForeArm  0.94703 16.7683 10.3325
RightHand  0.293024 0.507649 5.63946
LeftUpLeg  -18.3924 2.49144 2.58915
LeftLeg  14.7102 -3.218 -0.649499
LeftFoot  1.35325 1.21894 -11.0071
LeftToes  5.45371e-012 -1.3743e-010 1.09575e-010
50
root  -49.4362 39.2733 -86.6627 1.46449 48.9226 4.10235
RightUpLeg  6.64116 -3.31983 2.77718
RightLeg  9.40593 -2.07285 -0.873284
RightFoot  -15.8287 -0.256758 -3.82181
RightToes  -2.9104e-010 0 -3.6325e-017
Spine  7.78561 1.54103 4.91932
Spine1  -2.83718 2.53067 -4.51905
HEad  3.74809 17.3115 -2.58675
LeftShoulder1  1.23784 0.439083 -34.3117
LeftArm  18.5293 5.73514 -31.314
LeftForeArm  1.53682 -10.3363 -15.2838
LeftHand  0.425978 -1.71502 -6.82825
RightShoulder  10.8079 14.4114 52.7607
RightArm  37.9443 4.63811 19.6797
RightForeArm  2.65716 15.5322 11.4172
RightHand  0.290197 0.530922 5.61651
LeftUpLeg  -17.7768 4.56498 1.69597
LeftLeg  6.58175 -2.95288 -1.58783
LeftFoot  2.06825 1.34277 -11.5001
LeftToes  5.45371e-012 -1.3743e-010 1.09575e-010
